<svg width="640" height="512" viewBox="0 0 640 512" fill="none" xmlns="http://www.w3.org/2000/svg">
<g clip-path="url(#clip0_783_29)">
<path d="M382.6 9.3999C370.1 -3.1001 349.8 -3.1001 337.3 9.3999L217.3 129.4C204.8 141.9 204.8 162.2 217.3 174.7L233.3 190.7C245.8 203.2 266.1 203.2 278.6 190.7L282.6 186.7L389.4 293.4L385.4 297.4C372.9 309.9 372.9 330.2 385.4 342.7L401.4 358.7C413.9 371.2 434.2 371.2 446.7 358.7L566.7 238.7C579.2 226.2 579.2 205.9 566.7 193.4L550.7 177.4C538.2 164.9 517.9 164.9 505.4 177.4L501.4 181.4L394.6 74.5999L398.6 70.5999C411.1 58.0999 411.1 37.7999 398.6 25.2999L382.6 9.2999V9.3999ZM230.6 297.4C218.1 284.9 197.8 284.9 185.3 297.4L73.3 409.4C60.8 421.9 60.8 442.2 73.3 454.7L121.3 502.7C133.8 515.2 154.1 515.2 166.6 502.7L278.6 390.7C291.1 378.2 291.1 357.9 278.6 345.4L277.2 344L336 285.3L290.7 240L232 298.7L230.6 297.3V297.4Z" fill="#0067A6"/>
</g>
<defs>
<clipPath id="clip0_783_29">
<rect width="512" height="512" fill="white" transform="translate(64)"/>
</clipPath>
</defs>
</svg>
