<svg width="640" height="512" viewBox="0 0 640 512" fill="none" xmlns="http://www.w3.org/2000/svg">
<g clip-path="url(#clip0_782_18)">
<g clip-path="url(#clip1_782_18)">
<path d="M48 0C21.5 0 0 21.5 0 48V368C0 394.5 21.5 416 48 416H64C64 469 107 512 160 512C213 512 256 469 256 416H384C384 469 427 512 480 512C533 512 576 469 576 416H608C625.7 416 640 401.7 640 384C640 366.3 625.7 352 608 352V288V256V237.3C608 220.3 601.3 204 589.3 192L512 114.7C500 102.7 483.7 96 466.7 96H416V48C416 21.5 394.5 0 368 0H48ZM416 160H466.7L544 237.3V256H416V160ZM112 416C112 403.27 117.057 391.061 126.059 382.059C135.061 373.057 147.27 368 160 368C172.73 368 184.939 373.057 193.941 382.059C202.943 391.061 208 403.27 208 416C208 428.73 202.943 440.939 193.941 449.941C184.939 458.943 172.73 464 160 464C147.27 464 135.061 458.943 126.059 449.941C117.057 440.939 112 428.73 112 416ZM480 368C492.73 368 504.939 373.057 513.941 382.059C522.943 391.061 528 403.27 528 416C528 428.73 522.943 440.939 513.941 449.941C504.939 458.943 492.73 464 480 464C467.27 464 455.061 458.943 446.059 449.941C437.057 440.939 432 428.73 432 416C432 403.27 437.057 391.061 446.059 382.059C455.061 373.057 467.27 368 480 368Z" fill="white"/>
</g>
</g>
<defs>
<clipPath id="clip0_782_18">
<rect width="640" height="512" fill="white"/>
</clipPath>
<clipPath id="clip1_782_18">
<rect width="640" height="512" fill="white"/>
</clipPath>
</defs>
</svg>
