<svg width="640" height="512" viewBox="0 0 640 512" fill="none" xmlns="http://www.w3.org/2000/svg">
<path d="M144 112C144 147.3 115.3 176 80 176V336C115.3 336 144 364.7 144 400H496C496 364.7 524.7 336 560 336V176C524.7 176 496 147.3 496 112H144ZM32 128C32 92.7 60.7 64 96 64H544C579.3 64 608 92.7 608 128V384C608 419.3 579.3 448 544 448H96C60.7 448 32 419.3 32 384V128ZM208 256C208 241.292 210.897 226.728 216.525 213.139C222.154 199.551 230.404 187.204 240.804 176.804C251.204 166.404 263.551 158.154 277.139 152.525C290.728 146.897 305.292 144 320 144C334.708 144 349.272 146.897 362.861 152.525C376.449 158.154 388.796 166.404 399.196 176.804C409.596 187.204 417.846 199.551 423.475 213.139C429.103 226.728 432 241.292 432 256C432 270.708 429.103 285.272 423.475 298.861C417.846 312.449 409.596 324.796 399.196 335.196C388.796 345.596 376.449 353.846 362.861 359.475C349.272 365.103 334.708 368 320 368C305.292 368 290.728 365.103 277.139 359.475C263.551 353.846 251.204 345.596 240.804 335.196C230.404 324.796 222.154 312.449 216.525 298.861C210.897 285.272 208 270.708 208 256ZM288 208C288 216.8 295.2 224 304 224V288H296C287.2 288 280 295.2 280 304C280 312.8 287.2 320 296 320H320H344C352.8 320 360 312.8 360 304C360 295.2 352.8 288 344 288H336V208C336 199.2 328.8 192 320 192H304C295.2 192 288 199.2 288 208Z" fill="#0067A6"/>
</svg>
