<?xml version="1.0" encoding="UTF-8"?>
<!DOCTYPE svg PUBLIC "-//W3C//DTD SVG 1.0//EN" "http://www.w3.org/TR/2001/REC-SVG-20010904/DTD/svg10.dtd">
<!-- Creator: CorelDRAW X8 -->
<svg xmlns="http://www.w3.org/2000/svg" xml:space="preserve" width="96px" height="65px" version="1.0" shape-rendering="geometricPrecision" text-rendering="geometricPrecision" image-rendering="optimizeQuality" fill-rule="evenodd" clip-rule="evenodd"
viewBox="0 0 387770 261066"
 xmlns:xlink="http://www.w3.org/1999/xlink">
 <g id="Слой_x0020_1">
  <metadata id="CorelCorpID_0Corel-Layer"/>
  <path fill="#0067A6" d="M123648 131537l-25416 33016 -57998 0 0 -18131 31219 0 0 -25099 -31219 0 0 -17433 62951 0 20463 27647zm44754 0l30690 -34692 0 67708 -5275 0 -25415 -33016zm-168402 -52746l0 110862 124865 698 21158 -28585 21158 28585 99506 -698 7813 -38661 21537 38634c9540,0 19079,0 28619,0l20955 -38634 7065 38730 35094 24 -23120 -110646 -34353 0 -19950 55334 -19951 -55334 -34353 0 -13744 64531 -2973 -379 0 -64461 -74048 0 -19255 23676 -17762 -23676c-42755,0 -85506,0 -128261,0zm357818 165078l14682 0 0 5662c-1943,1057 -4255,1962 -6969,2697 -2701,738 -5398,1111 -8082,1111 -5442,0 -9833,-1327 -13199,-3975 -3349,-2651 -5026,-6626 -5026,-11934 0,-4910 1660,-8618 4966,-11123 3307,-2501 7770,-3749 13378,-3749 3706,0 6792,636 9251,1903 2478,1277 4167,3010 5059,5202l12812 -1683c-1277,-4111 -4138,-7321 -8571,-9656 -4451,-2328 -10634,-3489 -18537,-3489 -6081,0 -11150,735 -15244,2222 -5352,1929 -9417,4713 -12204,8329 -2774,3622 -4168,7756 -4168,12410 0,4287 1248,8265 3739,11911 2491,3642 6213,6456 11149,8422 4953,1962 10751,2937 17410,2937 5248,0 10424,-695 15526,-2086 5116,-1403 9017,-3013 11698,-4849l0 -17802 -27670 0 0 7540zm-93882 16388l11925 0 0 -29327 25814 29327 12889 0 0 -44614 -11924 0 0 29899 -26217 -29899 -12487 0 0 44614zm-25162 0l12899 0 0 -44614 -12899 0 0 44614zm-62283 -14455c845,4973 3412,8764 7727,11359 4314,2608 10497,3905 18550,3905 5531,0 10158,-539 13867,-1630 3705,-1081 6569,-2741 8598,-4976 2032,-2232 3040,-4630 3040,-7185 0,-2814 -845,-5182 -2535,-7101 -1689,-1923 -4034,-3429 -7028,-4540 -2980,-1101 -7594,-2179 -13837,-3210 -6243,-1038 -10171,-2036 -11788,-3000 -1274,-749 -1912,-1650 -1912,-2711 0,-1161 681,-2086 2032,-2781 2089,-1081 4996,-1620 8701,-1620 3589,0 6290,509 8083,1514 1796,1008 2967,2661 3516,4966l12899 -313c-207,-4144 -2312,-7447 -6347,-9929 -4018,-2481 -10025,-3715 -17985,-3715 -4896,0 -9047,519 -12503,1557 -3456,1037 -6093,2544 -7933,4527 -1822,1982 -2744,4124 -2744,6396 0,3542 1943,6543 5844,9004 2774,1756 7591,3230 14459,4434 5339,934 8748,1580 10245,1952 2195,542 3739,1184 4613,1923 875,748 1321,1640 1321,2701 0,1639 -1054,3073 -3143,4297 -2093,1227 -5209,1839 -9330,1839 -3899,0 -6999,-685 -9297,-2065 -2298,-1384 -3812,-3533 -4567,-6473l-12546 875zm-27062 -3240l-17453 0 8599 -16511 8854 16511zm23576 17695l-25519 -44614 -13627 0 -24737 44614 13644 0 5292 -10158 25552 0 5501 10158 13894 0zm-116733 0l48403 0 0 -7540 -35500 0 0 -12087 31851 0 0 -7541 -31851 0 0 -9905 34253 0 0 -7541 -47156 0 0 44614zm-53990 0l44840 0 0 -7540 -31941 0 0 -36701 -12899 0 0 44241zm-2205 -260257l0 59266 387617 0 0 -59266 -387617 0z"/>
 </g>
</svg>
