<svg width="260" height="260" viewBox="0 0 260 260" fill="none" xmlns="http://www.w3.org/2000/svg">
<path fill-rule="evenodd" clip-rule="evenodd" d="M82.9061 131.529L65.8646 153.666H26.9769V141.509H47.9093V124.681H26.9769V112.992H69.1856L82.9061 131.529ZM112.914 131.529L133.491 108.268V153.666H129.954L112.914 131.529ZM0 96.1628V170.496L83.7221 170.964L97.9085 151.798L112.095 170.964L178.814 170.496L184.052 144.574L198.493 170.478C204.89 170.478 211.285 170.478 217.682 170.478L231.732 144.574L236.469 170.542L260 170.558L244.498 96.37H221.464L208.088 133.471L194.711 96.37H171.677L162.462 139.638L160.468 139.384V96.1628H110.819L97.9085 112.038L85.9991 96.1628C57.3318 96.1628 28.6673 96.1628 0 96.1628ZM239.917 206.848H249.761V210.644C248.459 211.353 246.908 211.96 245.089 212.452C243.278 212.947 241.469 213.197 239.67 213.197C236.021 213.197 233.077 212.308 230.82 210.532C228.574 208.755 227.45 206.089 227.45 202.53C227.45 199.238 228.563 196.752 230.78 195.072C232.997 193.395 235.989 192.559 239.75 192.559C242.234 192.559 244.304 192.985 245.952 193.835C247.614 194.691 248.746 195.853 249.344 197.323L257.935 196.194C257.079 193.438 255.16 191.285 252.188 189.72C249.204 188.159 245.058 187.38 239.759 187.38C235.682 187.38 232.283 187.873 229.538 188.87C225.949 190.164 223.224 192.03 221.355 194.455C219.495 196.883 218.56 199.655 218.56 202.776C218.56 205.65 219.397 208.317 221.067 210.762C222.738 213.204 225.233 215.091 228.543 216.409C231.864 217.725 235.751 218.378 240.216 218.378C243.735 218.378 247.206 217.912 250.626 216.98C254.057 216.039 256.672 214.959 258.47 213.728V201.792H239.917V206.848ZM176.969 217.836H184.965V198.172L202.273 217.836H210.915V187.922H202.92V207.969L185.342 187.922H176.969V217.836ZM160.098 217.836H168.747V187.922H160.098V217.836ZM118.337 208.144C118.904 211.478 120.625 214.02 123.518 215.76C126.411 217.509 130.557 218.378 135.956 218.378C139.665 218.378 142.767 218.017 145.254 217.285C147.738 216.561 149.658 215.448 151.019 213.949C152.381 212.452 153.057 210.845 153.057 209.131C153.057 207.245 152.491 205.657 151.357 204.37C150.225 203.081 148.653 202.071 146.645 201.326C144.647 200.588 141.553 199.865 137.367 199.174C133.182 198.478 130.548 197.809 129.464 197.162C128.609 196.66 128.182 196.056 128.182 195.345C128.182 194.566 128.638 193.946 129.544 193.48C130.945 192.755 132.894 192.394 135.378 192.394C137.785 192.394 139.596 192.735 140.798 193.409C142.002 194.085 142.787 195.193 143.155 196.739L151.804 196.529C151.665 193.75 150.254 191.535 147.548 189.871C144.854 188.208 140.827 187.38 135.489 187.38C132.207 187.38 129.423 187.728 127.106 188.424C124.789 189.12 123.021 190.13 121.787 191.46C120.565 192.789 119.947 194.225 119.947 195.748C119.947 198.123 121.25 200.135 123.866 201.785C125.726 202.963 128.955 203.951 133.56 204.758C137.14 205.385 139.426 205.818 140.43 206.067C141.901 206.431 142.937 206.861 143.523 207.357C144.109 207.858 144.408 208.456 144.408 209.168C144.408 210.267 143.702 211.228 142.301 212.049C140.898 212.871 138.808 213.282 136.045 213.282C133.431 213.282 131.352 212.823 129.812 211.897C128.271 210.969 127.256 209.528 126.749 207.557L118.337 208.144ZM100.192 205.971H88.49L94.2556 194.901L100.192 205.971ZM116 217.836L98.8894 187.922H89.7525L73.1664 217.836H82.3147L85.863 211.025H102.996L106.684 217.836H116ZM37.7304 217.836H70.1846V212.78H46.3819V204.676H67.738V199.62H46.3819V192.978H69.3485V187.922H37.7304V217.836ZM1.53008 217.836H31.5953V212.78H10.1789V188.172H1.53008V217.836ZM0.0516285 43.3334V83.0713H259.949V43.3334H0.0516285Z" fill="#0067A6"/>
</svg>
