<?xml version="1.0" standalone="no"?>
<!DOCTYPE svg PUBLIC "-//W3C//DTD SVG 20010904//EN"
 "http://www.w3.org/TR/2001/REC-SVG-20010904/DTD/svg10.dtd">
<svg version="1.0" xmlns="http://www.w3.org/2000/svg"
 width="700.000000pt" height="700.000000pt" viewBox="0 0 700.000000 700.000000"
 preserveAspectRatio="xMidYMid meet">
<metadata>
Created by potrace 1.14, written by Peter Selinger 2001-2017
</metadata>
<g transform="translate(0.000000,700.000000) scale(0.100000,-0.100000)"
fill="#000000" stroke="none">
<path d="M10 5830 c-4 -3 -8 -244 -8 -535 l0 -531 3496 1 3497 0 0 534 0 535
-3488 0 c-1919 1 -3493 -1 -3497 -4z"/>
<path d="M0 3410 l0 -1000 183 -1 c164 0 675 -3 1710 -10 207 -1 361 2 366 7
5 5 89 117 186 249 98 132 181 244 185 248 4 5 53 -54 109 -130 56 -76 107
-145 114 -153 7 -9 45 -60 86 -115 41 -55 75 -102 77 -104 3 -4 190 -3 1064 4
239 2 503 4 586 4 l151 1 12 68 c19 99 17 89 67 332 44 214 50 246 53 279 1 9
4 11 10 5 7 -7 118 -202 263 -464 13 -25 46 -84 73 -133 l49 -87 257 0 258 0
24 43 c14 23 40 71 59 107 20 36 54 99 76 140 74 137 122 224 169 312 25 49
49 86 51 83 3 -2 9 -26 13 -52 10 -56 16 -95 26 -143 3 -19 7 -42 9 -50 2 -8
6 -31 9 -50 4 -19 9 -46 11 -60 30 -175 58 -316 63 -323 7 -7 620 -12 627 -5
1 2 -8 54 -22 116 -13 63 -26 126 -29 142 -3 16 -16 79 -29 142 -14 62 -27
128 -31 145 -3 18 -12 61 -20 95 -8 35 -16 74 -19 88 -2 14 -12 61 -21 105 -9
44 -19 89 -21 100 -2 11 -6 31 -9 45 -3 14 -8 41 -11 60 -3 19 -8 38 -10 41
-2 3 -6 21 -9 40 -3 19 -12 63 -20 99 -8 36 -17 76 -19 90 -3 14 -23 113 -46
220 -22 107 -48 229 -56 270 -8 41 -19 91 -24 110 -4 19 -11 46 -14 60 l-5 25
-308 0 -308 0 -27 -70 c-15 -38 -61 -164 -102 -280 -250 -697 -232 -650 -244
-619 -6 16 -64 175 -127 354 -64 179 -120 334 -125 345 -5 11 -29 76 -53 145
l-45 125 -307 1 c-168 0 -308 -3 -311 -8 -4 -6 -37 -146 -50 -213 -2 -11 -24
-117 -49 -235 -26 -118 -48 -226 -51 -240 -3 -14 -11 -53 -19 -86 -8 -34 -17
-75 -19 -90 -17 -94 -59 -280 -65 -286 -3 -4 -16 -5 -29 -2 l-22 6 0 579 0
579 -669 0 -669 0 -168 -209 c-93 -116 -172 -210 -176 -210 -6 -1 -170 214
-304 397 l-17 22 -1158 0 -1159 0 0 -1000z m3595 67 c0 -391 -3 -604 -10 -608
-5 -4 -28 -6 -49 -5 -39 1 -39 2 -266 296 -125 162 -225 300 -221 306 5 10 60
72 187 214 74 83 88 99 219 249 72 82 132 150 135 150 3 1 5 -270 5 -602z
m-1721 469 c2 -6 83 -117 180 -246 96 -129 175 -237 176 -240 0 -3 -103 -138
-228 -300 l-228 -295 -524 0 -524 0 -1 150 c0 83 1 156 3 163 3 9 69 12 283
12 l279 0 0 224 c0 170 -3 225 -12 228 -7 2 -133 3 -280 3 -236 -1 -268 1
-269 14 -3 46 -4 278 -1 287 5 16 1139 16 1146 0z"/>
<path d="M3509 1944 c-143 -23 -219 -66 -260 -146 -56 -109 15 -215 183 -272
40 -13 182 -44 283 -61 103 -17 160 -45 170 -83 15 -61 -66 -113 -188 -120
-142 -8 -239 33 -269 114 l-12 35 -76 -5 c-41 -2 -92 -5 -112 -5 -46 -1 -48
-14 -14 -87 63 -136 220 -197 486 -190 182 6 280 35 350 105 26 26 53 64 60
85 13 41 6 146 -11 146 -5 0 -9 5 -9 11 0 18 -54 65 -99 88 -45 23 -155 54
-251 72 -99 17 -109 19 -170 33 -69 16 -96 30 -110 57 -31 57 44 94 190 94
114 -1 156 -17 188 -74 l21 -38 88 3 c48 1 100 3 116 3 25 1 27 4 21 29 -27
112 -123 181 -289 208 -70 11 -209 10 -286 -2z"/>
<path d="M6338 1949 c-124 -13 -255 -65 -329 -132 -183 -165 -158 -453 51
-594 195 -131 583 -134 846 -6 l52 25 1 163 0 162 -249 1 -250 0 0 -69 0 -68
133 -3 132 -3 0 -40 c1 -57 -2 -61 -51 -80 -81 -31 -158 -44 -239 -41 -196 6
-305 102 -309 271 -1 88 22 152 73 198 78 70 227 99 360 69 55 -12 71 -21 114
-64 48 -48 50 -49 96 -43 25 3 71 8 101 11 30 3 59 9 63 14 5 4 0 25 -11 46
-73 142 -298 212 -584 183z"/>
<path d="M58 1932 c-15 -3 -16 -36 -15 -400 l2 -397 390 -1 c215 0 396 2 403
4 8 3 12 26 12 68 l0 64 -288 0 -288 0 0 326 c1 179 -1 329 -4 332 -5 7 -181
10 -212 4z"/>
<path d="M1015 1538 l0 -403 425 -1 c234 0 431 2 438 4 8 3 12 26 12 68 l0 64
-320 0 -320 0 0 110 0 110 285 0 c221 0 285 3 286 13 5 55 2 117 -6 118 -5 1
-134 2 -285 3 l-275 1 0 90 0 90 305 0 305 0 2 68 3 67 -428 0 -427 0 0 -402z"/>
<path d="M2245 1633 c-93 -169 -193 -350 -222 -403 l-52 -95 123 0 123 0 47
91 47 92 229 0 c163 0 231 -3 238 -11 5 -7 26 -45 47 -85 20 -39 42 -75 48
-79 12 -7 247 -12 247 -5 0 2 -17 34 -39 70 -63 109 -157 273 -187 328 -16 28
-74 130 -129 227 l-100 177 -125 0 -125 0 -170 -307z m345 22 c24 -44 57 -107
75 -140 l33 -60 -154 -1 c-85 0 -154 3 -154 6 -1 14 146 288 151 282 4 -4 26
-43 49 -87z"/>
<path d="M4312 1538 l3 -402 108 -1 c60 -1 111 3 114 9 3 5 6 185 6 400 l0
391 -116 3 -117 3 2 -403z"/>
<path d="M4765 1545 c0 -296 3 -398 12 -403 6 -4 54 -7 105 -7 l93 0 5 262 5
263 72 -83 c39 -45 80 -91 90 -102 10 -11 65 -74 123 -140 58 -66 122 -138
142 -160 l37 -40 113 0 113 0 2 403 1 402 -107 0 -108 0 1 -261 c0 -143 -2
-263 -5 -265 -3 -2 -16 9 -29 24 -13 15 -51 59 -85 97 -34 39 -75 85 -91 104
-16 19 -33 39 -39 45 -5 6 -41 47 -80 91 -38 44 -85 96 -102 115 -18 19 -33
38 -33 43 0 4 -53 7 -118 7 l-117 0 0 -395z"/>
</g>
</svg>
