<svg width="640" height="512" viewBox="0 0 640 512" fill="none" xmlns="http://www.w3.org/2000/svg">
<g clip-path="url(#clip0_782_22)">
<path d="M408 64H448C483.3 64 512 92.7 512 128V448C512 483.3 483.3 512 448 512H192C156.7 512 128 483.3 128 448V128C128 92.7 156.7 64 192 64H232H241.6C249 27.5 281.3 0 320 0C358.7 0 391 27.5 398.4 64H408ZM192 112C183.2 112 176 119.2 176 128V448C176 456.8 183.2 464 192 464H448C456.8 464 464 456.8 464 448V128C464 119.2 456.8 112 448 112H432V136C432 149.3 421.3 160 408 160H320H232C218.7 160 208 149.3 208 136V112H192ZM320 104C326.365 104 332.47 101.471 336.971 96.9706C341.471 92.4697 344 86.3652 344 80C344 73.6348 341.471 67.5303 336.971 63.0294C332.47 58.5286 326.365 56 320 56C313.635 56 307.53 58.5286 303.029 63.0294C298.529 67.5303 296 73.6348 296 80C296 86.3652 298.529 92.4697 303.029 96.9706C307.53 101.471 313.635 104 320 104Z" fill="white"/>
</g>
<defs>
<clipPath id="clip0_782_22">
<rect width="384" height="512" fill="white" transform="translate(128)"/>
</clipPath>
</defs>
</svg>
