<svg width="640" height="512" viewBox="0 0 640 512" fill="none" xmlns="http://www.w3.org/2000/svg">
<g clip-path="url(#clip0_783_28)">
<path d="M176 0C149.5 0 128 21.5 128 48V464C128 490.5 149.5 512 176 512H272V432C272 405.5 293.5 384 320 384C346.5 384 368 405.5 368 432V512H464C490.5 512 512 490.5 512 464V48C512 21.5 490.5 0 464 0H176ZM192 240C192 231.2 199.2 224 208 224H240C248.8 224 256 231.2 256 240V272C256 280.8 248.8 288 240 288H208C199.2 288 192 280.8 192 272V240ZM304 224H336C344.8 224 352 231.2 352 240V272C352 280.8 344.8 288 336 288H304C295.2 288 288 280.8 288 272V240C288 231.2 295.2 224 304 224ZM384 240C384 231.2 391.2 224 400 224H432C440.8 224 448 231.2 448 240V272C448 280.8 440.8 288 432 288H400C391.2 288 384 280.8 384 272V240ZM208 96H240C248.8 96 256 103.2 256 112V144C256 152.8 248.8 160 240 160H208C199.2 160 192 152.8 192 144V112C192 103.2 199.2 96 208 96ZM288 112C288 103.2 295.2 96 304 96H336C344.8 96 352 103.2 352 112V144C352 152.8 344.8 160 336 160H304C295.2 160 288 152.8 288 144V112ZM400 96H432C440.8 96 448 103.2 448 112V144C448 152.8 440.8 160 432 160H400C391.2 160 384 152.8 384 144V112C384 103.2 391.2 96 400 96Z" fill="white"/>
</g>
<defs>
<clipPath id="clip0_783_28">
<rect width="384" height="512" fill="white" transform="translate(128)"/>
</clipPath>
</defs>
</svg>
