<svg width="640" height="512" viewBox="0 0 640 512" fill="none" xmlns="http://www.w3.org/2000/svg">
<g clip-path="url(#clip0_782_19)">
<path d="M199.2 117.4L173.1 192H466.9L440.8 117.4C436.3 104.6 424.2 96 410.6 96H229.4C215.8 96 203.7 104.6 199.2 117.4ZM103.6 196.8L138.8 96.3C152.3 57.8 188.6 32 229.4 32H410.6C451.4 32 487.7 57.8 501.2 96.3L536.4 196.8C559.6 206.4 576 229.3 576 256V400V448C576 465.7 561.7 480 544 480H512C494.3 480 480 465.7 480 448V400H160V448C160 465.7 145.7 480 128 480H96C78.3 480 64 465.7 64 448V400V256C64 229.3 80.4 206.4 103.6 196.8ZM192 288C192 279.513 188.629 271.374 182.627 265.373C176.626 259.371 168.487 256 160 256C151.513 256 143.374 259.371 137.373 265.373C131.371 271.374 128 279.513 128 288C128 296.487 131.371 304.626 137.373 310.627C143.374 316.629 151.513 320 160 320C168.487 320 176.626 316.629 182.627 310.627C188.629 304.626 192 296.487 192 288ZM480 320C488.487 320 496.626 316.629 502.627 310.627C508.629 304.626 512 296.487 512 288C512 279.513 508.629 271.374 502.627 265.373C496.626 259.371 488.487 256 480 256C471.513 256 463.374 259.371 457.373 265.373C451.371 271.374 448 279.513 448 288C448 296.487 451.371 304.626 457.373 310.627C463.374 316.629 471.513 320 480 320Z" fill="#0067A6"/>
</g>
<defs>
<clipPath id="clip0_782_19">
<rect width="640" height="512" fill="white"/>
</clipPath>
</defs>
</svg>
