<svg width="640" height="512" viewBox="0 0 640 512" fill="none" xmlns="http://www.w3.org/2000/svg">
<g clip-path="url(#clip0_783_30)">
<path d="M512 312.7C456.9 449.4 324.9 366.7 324.9 366.7C284.4 448.5 217.5 501.1 140.3 501.4C124.2 501.4 123.7 477 140.3 477C204.7 476.7 260.8 434.3 297.5 366.9C256.4 382.8 178.9 394.8 135.9 284.7C244.9 239.8 295 295.9 314.2 330.2C324.1 305.8 331.2 279.3 335.8 250.5C335.8 250.5 196.1 272.4 186.3 152.4C305.4 104.5 338.9 229.1 338.9 229.1C340.5 212.4 342.2 176.5 342.2 175.7C342.2 175.7 235.9 102 304.1 10.5C428.7 53.5 365.5 172.9 365.5 172.9C366 174.5 366 196.7 365.5 206.3C365.5 206.3 410.7 117.3 501.9 148.8C497.7 282.8 360 255.2 360 255.2C355.6 282.6 348.8 308.6 340 332.7C340 332.7 423 240.9 512 312.7Z" fill="#0067A6"/>
</g>
<defs>
<clipPath id="clip0_783_30">
<rect width="384" height="512" fill="white" transform="translate(128)"/>
</clipPath>
</defs>
</svg>
