<svg width="28" height="28" viewBox="0 0 28 28" fill="none" xmlns="http://www.w3.org/2000/svg">
  <path fill-rule="evenodd" clip-rule="evenodd" d="M10.2065 10.999C10.3396 10.7784 11.0735 9.97632 11.5971 10.0005C11.7537 10.0135 11.8921 10.1082 12.0045 10.218C12.2627 10.4701 13.0017 11.4236 13.0436 11.6242C13.1457 12.1163 12.5593 12.4 12.7388 12.8959C13.1963 14.0154 13.9846 14.8037 15.1046 15.2608C15.6001 15.4402 15.8838 14.8539 16.3759 14.9563C16.5761 14.9983 17.5301 15.7373 17.7822 15.9954C17.8916 16.1074 17.9867 16.2462 17.9997 16.4027C18.0191 16.9541 17.1672 17.6982 17.0012 17.7934C16.6094 18.0736 16.0983 18.0688 15.4752 17.7791C13.7364 17.0557 10.9576 14.3294 10.2207 12.5249C9.93878 11.9053 9.91932 11.3907 10.2065 10.999Z" stroke="currentcolor" stroke-linecap="round" stroke-linejoin="round"/>
</svg>
